<?xml version="1.0" encoding="UTF-8" standalone="no"?>
<!-- Created with Inkscape (http://www.inkscape.org/) -->

<svg
   xmlns:dc="http://purl.org/dc/elements/1.1/"
   xmlns:cc="http://creativecommons.org/ns#"
   xmlns:rdf="http://www.w3.org/1999/02/22-rdf-syntax-ns#"
   xmlns:svg="http://www.w3.org/2000/svg"
   xmlns="http://www.w3.org/2000/svg"
   xmlns:sodipodi="http://sodipodi.sourceforge.net/DTD/sodipodi-0.dtd"
   xmlns:inkscape="http://www.inkscape.org/namespaces/inkscape"
   width="292.84375"
   height="292.84375"
   id="svg2"
   version="1.1"
   inkscape:version="0.48.5 r10040"
   sodipodi:docname="New document 1">
  <defs
     id="defs4" />
  <sodipodi:namedview
     id="base"
     pagecolor="#ffffff"
     bordercolor="#666666"
     borderopacity="1.0"
     inkscape:pageopacity="0.0"
     inkscape:pageshadow="2"
     inkscape:zoom="1.4"
     inkscape:cx="171.78571"
     inkscape:cy="109.27621"
     inkscape:document-units="px"
     inkscape:current-layer="layer1"
     showgrid="false"
     inkscape:window-width="1366"
     inkscape:window-height="754"
     inkscape:window-x="0"
     inkscape:window-y="14"
     inkscape:window-maximized="0"
     fit-margin-top="0"
     fit-margin-left="0"
     fit-margin-right="0"
     fit-margin-bottom="0" />
  <metadata
     id="metadata7">
    <rdf:RDF>
      <cc:Work
         rdf:about="">
        <dc:format>image/svg+xml</dc:format>
        <dc:type
           rdf:resource="http://purl.org/dc/dcmitype/StillImage" />
        <dc:title></dc:title>
      </cc:Work>
    </rdf:RDF>
  </metadata>
  <g
     inkscape:label="Layer 1"
     inkscape:groupmode="layer"
     id="layer1"
     transform="translate(-120,-405.9375)">
    <path
       style="fill:#000000;fill-opacity:1;fill-rule:nonzero;stroke:none"
       d="m 127.15625,405.9375 c -3.95714,0 -7.15625,3.16786 -7.15625,7.125 l 0,278.59375 c 0,3.95714 3.19911,7.125 7.15625,7.125 l 278.5625,0 c 3.95714,0 7.125,-3.16786 7.125,-7.125 l 0,-278.59375 c 0,-3.95714 -3.16786,-7.125 -7.125,-7.125 l -278.5625,0 z m 52.625,69.625 c 0.90977,0 1.80047,0.33172 2.5,1.03125 l 62.625,62.625 10.625,10.625 c 1.39906,1.39906 1.39906,3.63219 0,5.03125 l -10.625,10.59375 -62.625,62.65625 c -1.39906,1.39906 -3.66344,1.39906 -5.0625,0 L 166.625,617.5 c -1.39906,-1.39906 -1.39906,-3.63218 0,-5.03125 L 226.71875,552.375 166.625,492.28125 c -1.39905,-1.39906 -1.36781,-3.66344 0.0312,-5.0625 l 10.59375,-10.625 c 0.69953,-0.69953 1.62148,-1.03125 2.53125,-1.03125 z m 80.375,144.21875 103.5625,0 c 1.97857,0 3.5625,1.61518 3.5625,3.59375 l 0,15 c 0,1.97857 -1.58393,3.5625 -3.5625,3.5625 l -103.5625,0 c -1.97857,0 -3.59375,-1.58393 -3.59375,-3.5625 l 0,-15 c 0,-1.97857 1.61518,-3.59375 3.59375,-3.59375 z"
       id="rect2985"
       inkscape:connector-curvature="0" />
  </g>
</svg>
